<?xml version="1.0" standalone="no"?>
<!DOCTYPE svg PUBLIC "-//W3C//DTD SVG 20010904//EN"
 "http://www.w3.org/TR/2001/REC-SVG-20010904/DTD/svg10.dtd">
<svg version="1.0" xmlns="http://www.w3.org/2000/svg"
 width="100.000000pt" height="100.000000pt" viewBox="0 0 100.000000 100.000000"
 preserveAspectRatio="xMidYMid meet">

<g transform="translate(0.000000,100.000000) scale(0.100000,-0.100000)"
fill="#000000" stroke="none">
<path d="M0 500 l0 -500 500 0 500 0 0 500 0 500 -500 0 -500 0 0 -500z m572
146 c14 -19 5 -33 -82 -132 l-84 -96 -15 31 c-14 30 -14 31 38 91 l52 60 -78
0 -79 0 -17 35 -16 34 137 -6 c82 -4 140 -10 144 -17z m58 -133 c0 -6 -22 -36
-50 -66 -27 -30 -50 -57 -50 -60 0 -3 35 -3 78 0 77 5 78 5 90 -21 7 -15 12
-31 12 -36 0 -6 -54 -10 -130 -10 -119 0 -130 2 -140 20 -9 18 1 34 76 126 85
104 88 105 100 82 7 -12 13 -28 14 -35z"/>
</g>
</svg>
